<svg xmlns="http://www.w3.org/2000/svg" aria-hidden="true" style="position:absolute;width:0;height:0;overflow:hidden"><defs>
<symbol id="icon-css3" viewBox="0 0 32 32"><path fill="#1572b6" d="M2 0h28l-2.547 28.751L15.969 32l-11.42-3.251zm22.787 5.884L7.214 5.88l.284 3.496 13.5.003-.34 3.621h-8.853l.32 3.431h8.243l-.488 4.697L16 22.2l-3.941-1.08-.251-2.813h-3.48l.387 5.14 7.287 2.271 7.164-2.04z" style="fill:var(--color1, #1572b6)"/></symbol>
<symbol id="icon-csswizardry" viewBox="0 0 32 32"><path fill="#f43059" d="M.04 21.904V1.491A1.49 1.49 0 0 1 1.529 0H30.4c.832 0 1.493.667 1.493 1.493v19.68c-.893-.547-1.947-.821-3.143-.821-1.672 0-2.94.4-3.805 1.195-.867.797-1.293 1.771-1.293 2.967 0 1.293.44 2.253 1.333 2.867.52.38 1.48.72 2.853 1.016l1.4.32c.84.177 1.427.4 1.813.613.373.244.573.583.573 1.02 0 .755-.387 1.273-1.16 1.531l-.04.021h-2.947a2.261 2.261 0 0 1-.92-.6c-.24-.299-.4-.733-.48-1.351h-2.64c0 .755.137 1.393.44 1.973h-2.24c.253-.52.4-1.097.4-1.756 0-1.173-.4-2.067-1.181-2.688-.499-.396-1.253-.713-2.251-.956l-2.293-.536c-.88-.187-1.453-.373-1.733-.533-.413-.24-.613-.6-.613-1.053 0-.507.213-.907.627-1.187.44-.28 1-.413 1.72-.413.653 0 1.173.12 1.613.347.659.341 1 .92 1.053 1.716h2.667c-.04-1.395-.553-2.471-1.533-3.205-.992-.733-2.167-1.113-3.56-1.113-1.673 0-2.927.4-3.804 1.173-.853.777-1.293 1.773-1.293 2.947 0 1.293.44 2.251 1.333 2.867.536.36 1.493.697 2.867 1.013l1.393.32c.813.18 1.413.38 1.813.62.373.24.573.573.573 1.013 0 .76-.4 1.253-1.173 1.533h-2.987c-.379-.141-.693-.341-.92-.62-.24-.293-.413-.752-.493-1.352h-2.689c0 .744.14 1.4.427 1.973H8.813c.44-.693.737-1.493.884-2.387H6.96c-.187.68-.416 1.197-.7 1.533-.347.44-.8.72-1.36.86H3.264c-.6-.14-1.116-.477-1.533-1.013-.619-.744-.917-1.859-.917-3.333 0-1.493.307-2.627.88-3.44.6-.817 1.373-1.213 2.387-1.213 1 0 1.733.28 2.253.859.28.32.52.8.693 1.435H9.8c-.04-.824-.347-1.653-.915-2.48-1.029-1.467-2.659-2.2-4.885-2.2-1.547 0-2.845.48-3.88 1.413zm31.859 4.848V24.68h-.688c-.047-.796-.4-1.363-1.044-1.699-.417-.219-.956-.331-1.591-.331-.72 0-1.273.147-1.693.429a1.395 1.395 0 0 0-.637 1.203c0 .473.221.827.636 1.06.293.14.867.339 1.747.539l2.293.547c.4.08.747.2 1.067.307z" style="fill:var(--color2, #f43059)"/></symbol>
<symbol id="icon-facebook" viewBox="0 0 32 32"><path fill="#1877f2" d="M31.997 15.999C31.997 7.163 24.834 0 15.998 0S-.001 7.163-.001 15.999c0 7.985 5.851 14.604 13.499 15.804v-11.18H9.436v-4.625h4.062v-3.525c0-4.01 2.389-6.225 6.043-6.225 1.75 0 3.581.313 3.581.313v3.937h-2.017c-1.987 0-2.607 1.233-2.607 2.498v3.001h4.437l-.709 4.625h-3.728v11.18c7.649-1.2 13.499-7.819 13.499-15.804z" style="fill:var(--color3, #1877f2)"/></symbol>
<symbol id="icon-html5" viewBox="0 0 32 32"><path fill="#e34f26" d="M2 0h28l-2.547 28.751L15.969 32 4.55 28.749zm9.375 13-.309-3.624 13.412.004.307-3.496L7.217 5.88l.931 10.68h12.168l-.435 4.568-3.88 1.072-3.94-1.08-.251-2.813H8.331l.44 5.561L16 25.801l7.172-1.924.992-10.876z" style="fill:var(--color4, #e34f26)"/></symbol>
<symbol id="icon-javascript" viewBox="0 0 32 32"><path fill="#f7df1e" d="M0 0h32v32H0zm29.379 24.368c-.233-1.46-1.184-2.687-4.004-3.831-.981-.46-2.072-.78-2.396-1.52-.121-.44-.14-.68-.061-.94.2-.861 1.22-1.12 2.02-.88.52.16 1 .56 1.301 1.2 1.379-.901 1.379-.901 2.34-1.5-.36-.56-.539-.801-.781-1.04-.84-.94-1.959-1.42-3.779-1.379l-.94.119c-.901.22-1.76.7-2.28 1.34-1.52 1.721-1.081 4.721.759 5.961 1.82 1.36 4.481 1.659 4.821 2.94.32 1.56-1.16 2.06-2.621 1.88-1.081-.24-1.68-.781-2.34-1.781l-2.44 1.401c.28.64.6.919 1.08 1.479 2.32 2.341 8.12 2.221 9.161-1.339.039-.12.32-.94.099-2.2zm-11.978-9.66h-2.997c0 2.584-.012 5.152-.012 7.74 0 1.643.084 3.151-.184 3.615-.44.919-1.573.801-2.088.64-.528-.261-.796-.621-1.107-1.14-.084-.14-.147-.261-.169-.261l-2.433 1.5c.407.84 1 1.563 1.765 2.023 1.14.68 2.672.9 4.276.54 1.044-.301 1.944-.921 2.415-1.881.68-1.24.536-2.76.529-4.461.016-2.739 0-5.479 0-8.239z" style="fill:var(--color5, #f7df1e)"/></symbol>
<symbol id="icon-linkedin" viewBox="0 0 32 32"><path fill="#0077b5" d="M27.263 27.269h-4.739v-7.425c0-1.771-.036-4.049-2.469-4.049-2.471 0-2.848 1.927-2.848 3.919v7.556h-4.739V12.001h4.552v2.081h.061c.636-1.2 2.183-2.467 4.493-2.467 4.801 0 5.689 3.16 5.689 7.273zM7.116 9.911a2.75 2.75 0 0 1-2.751-2.753 2.752 2.752 0 1 1 2.751 2.753zm2.376 17.358H4.74V12h4.752zM29.633 0H2.361C1.056 0 0 1.032 0 2.305v27.389c0 1.275 1.056 2.305 2.361 2.305h27.268c1.304 0 2.371-1.031 2.371-2.305V2.305C32 1.032 30.933 0 29.629 0z" style="fill:var(--color6, #0077b5)"/></symbol>
<symbol id="icon-node-dot-js" viewBox="0 0 32 32"><path fill="#393" d="M15.997 32c-.428 0-.855-.112-1.229-.329l-3.915-2.316c-.584-.327-.299-.443-.107-.511.78-.271.937-.333 1.771-.805.087-.049.201-.031.291.023l3.008 1.785c.109.06.263.06.363 0l11.727-6.768a.37.37 0 0 0 .179-.317V9.229a.38.38 0 0 0-.183-.323L16.181 2.143a.368.368 0 0 0-.361 0L4.101 8.907a.378.378 0 0 0-.185.321v13.533c0 .129.072.252.185.313l3.212 1.856c1.743.872 2.811-.155 2.811-1.187V10.382c0-.189.152-.337.341-.337h1.487a.34.34 0 0 1 .34.337v13.361c0 2.327-1.267 3.66-3.472 3.66-.677 0-1.212 0-2.701-.735l-3.077-1.769a2.475 2.475 0 0 1-1.229-2.139V9.227c0-.879.471-1.7 1.229-2.137L14.769.314a2.567 2.567 0 0 1 2.464 0L28.958 7.09a2.475 2.475 0 0 1 1.232 2.137V22.76c0 .879-.472 1.697-1.232 2.139L17.233 31.67a2.45 2.45 0 0 1-1.233.329zm9.468-13.343c0-2.533-1.712-3.208-5.316-3.684-3.641-.481-4.012-.731-4.012-1.583 0-.704.313-1.644 3.011-1.644 2.409 0 3.297.519 3.663 2.143a.338.338 0 0 0 .329.265h1.521a.34.34 0 0 0 .337-.369c-.236-2.797-2.095-4.101-5.851-4.101-3.344 0-5.339 1.411-5.339 3.777 0 2.567 1.984 3.276 5.193 3.593 3.84.376 4.137.937 4.137 1.692 0 1.311-1.052 1.869-3.523 1.869-3.103 0-3.785-.779-4.015-2.323a.34.34 0 0 0-.337-.287h-1.516a.336.336 0 0 0-.339.337c0 1.976 1.075 4.331 6.207 4.331 3.717.001 5.848-1.461 5.848-4.017z" style="fill:var(--color7, #393)"/></symbol>
<symbol id="icon-npm" viewBox="0 0 32 32"><path fill="#cb3837" d="M0 9.779v10.667h8.888v1.776H16v-1.776h16V9.779zm8.888 8.885H7.112v-5.333h-1.78v5.333H1.78v-7.108h7.108zm5.333 0v1.781h-3.553v-8.889h7.112v7.109h-3.559zm16.002 0H28.45v-5.333h-1.781v5.333h-1.78v-5.333h-1.773v5.333h-3.561v-7.108h10.669zM14.22 13.333H16v3.556h-1.78z" style="fill:var(--color8, #cb3837)"/></symbol>
<symbol id="icon-react" viewBox="0 0 32 32"><path fill="#61dafb" d="M16 13.148a2.852 2.852 0 0 0 0 5.704 2.852 2.852 0 0 0 0-5.704zm-7.989 8.525-.629-.16C2.691 20.328.001 18.316.001 15.994s2.691-4.333 7.381-5.519l.629-.159.177.624a31.104 31.104 0 0 0 1.899 4.957l-.082-.186.135.284-.135.284a29.368 29.368 0 0 0-1.761 4.551l-.056.22zm-.922-9.74c-3.565 1.001-5.753 2.533-5.753 4.061 0 1.527 2.188 3.059 5.753 4.061a32.611 32.611 0 0 1 1.662-4.263l-.086.202a30.435 30.435 0 0 1-1.511-3.828l-.065-.234zm16.9 9.74-.177-.625a30.782 30.782 0 0 0-1.9-4.954l.081.184-.135-.284.135-.284a29.456 29.456 0 0 0 1.762-4.55l.056-.221.177-.624.631.159c4.689 1.185 7.38 3.197 7.38 5.52s-2.691 4.333-7.38 5.519zm-.654-5.678a33.038 33.038 0 0 1 1.576 4.061c3.567-1.003 5.753-2.535 5.753-4.061 0-1.528-2.188-3.059-5.753-4.061a32.424 32.424 0 0 1-1.662 4.262l.086-.2zM7.08 11.927l-.177-.623C5.584 6.656 5.984 3.325 8 2.163c1.977-1.141 5.152.207 8.479 3.621l.453.465-.453.465a31.6 31.6 0 0 0-3.162 3.853l-.068.103-.18.257-.313.027a31.667 31.667 0 0 0-5.264.86l.218-.047zm2.528-8.84c-.357 0-.673.077-.94.231-1.325.764-1.56 3.42-.647 7.004a31.194 31.194 0 0 1 4.18-.658l.131-.01a33.328 33.328 0 0 1 2.756-3.414l-.02.022c-2.08-2.025-4.049-3.175-5.46-3.175zm12.785 27.149c-.001 0-.001 0 0 0-1.9 0-4.34-1.431-6.872-4.031l-.453-.465.453-.465a31.427 31.427 0 0 0 3.16-3.854l.068-.103.18-.257.312-.027a31.74 31.74 0 0 0 5.267-.858l-.218.046.629-.159.179.624c1.316 4.645.917 7.977-1.099 9.139a3.132 3.132 0 0 1-1.562.411h-.047.002zm-5.461-4.508c2.08 2.025 4.049 3.175 5.46 3.175h.001c.356 0 .673-.077.939-.231 1.325-.764 1.561-3.421.647-7.005a30.933 30.933 0 0 1-4.182.658l-.13.01a33.219 33.219 0 0 1-2.755 3.416l.02-.022zm7.988-13.801-.629-.159c-1.453-.376-3.175-.664-4.939-.806l-.111-.007-.312-.027-.18-.257a31.57 31.57 0 0 0-3.237-3.966l.009.01-.453-.465.453-.465C18.846 2.372 22.02 1.024 24 2.164c2.016 1.163 2.416 4.493 1.099 9.14zm-5.253-2.274c1.523.139 2.969.364 4.312.668.915-3.584.679-6.24-.647-7.004-1.317-.761-3.793.405-6.4 2.944a33.376 33.376 0 0 1 2.666 3.289l.069.103zM9.608 30.236h-.046a3.153 3.153 0 0 1-1.577-.419l.015.008c-2.016-1.161-2.416-4.492-1.097-9.139l.176-.624.629.159c1.54.388 3.239.661 5.047.812l.313.027.179.257a31.521 31.521 0 0 0 3.239 3.967l-.01-.01.453.465-.453.465c-2.531 2.6-4.971 4.031-6.868 4.031zm-1.587-8.569c-.915 3.584-.679 6.241.647 7.005 1.316.751 3.791-.407 6.4-2.944a33.543 33.543 0 0 1-2.667-3.29l-.069-.103a33.315 33.315 0 0 1-4.534-.711l.224.043zm7.979.837c-1.097 0-2.225-.048-3.355-.141l-.313-.027-.18-.257a38.303 38.303 0 0 1-1.697-2.639l-.103-.19a36.12 36.12 0 0 1-1.45-2.728l-.105-.243-.133-.284.133-.284a38.537 38.537 0 0 1 1.658-3.161l-.103.191a40.4 40.4 0 0 1 1.8-2.829l.18-.257.313-.027a40.227 40.227 0 0 1 6.86.011l-.15-.011.312.027.179.257a39.103 39.103 0 0 1 3.252 5.56l.104.24.135.284-.135.284a39.328 39.328 0 0 1-3.439 5.925l.083-.125-.179.257-.312.027a41.083 41.083 0 0 1-3.356.141zm-2.929-1.445c1.973.148 3.885.148 5.86 0a37.57 37.57 0 0 0 2.827-4.836l.101-.228a37.891 37.891 0 0 0-3.012-5.19l.083.126a39.304 39.304 0 0 0-5.992.008l.134-.008a36.95 36.95 0 0 0-2.83 4.84l-.099.224a38.502 38.502 0 0 0 3.014 5.193l-.085-.13z" style="fill:var(--color9, #61dafb)"/></symbol>
<symbol id="icon-sass" viewBox="0 0 32 32"><path fill="#c69" d="M16 0c8.836 0 16 7.164 16 16s-7.164 16-16 16S0 24.836 0 16 7.164 0 16 0zm-3.18 21.331c.233.86.208 1.664-.032 2.389l-.087.24c-.032.081-.069.16-.104.235a4.492 4.492 0 0 1-.74 1.08c-.931 1.012-2.229 1.396-2.787 1.073-.6-.349-.301-1.78.779-2.92 1.161-1.224 2.827-2.012 2.827-2.012v-.004zM26.035 6.849c-.723-2.844-5.436-3.779-9.896-2.193-2.652.943-5.525 2.424-7.591 4.356-2.457 2.295-2.848 4.295-2.687 5.131.569 2.948 4.609 4.876 6.271 6.307v.008c-.489.24-4.075 2.039-4.915 3.9-.9 1.96.14 3.361.82 3.54 2.1.581 4.26-.48 5.42-2.199 1.12-1.681 1.021-3.841.539-4.901.661-.18 1.44-.26 2.44-.139 2.801.32 3.361 2.08 3.24 2.8-.12.719-.697 1.139-.899 1.259-.2.121-.26.16-.241.241.02.12.121.12.28.1.22-.04 1.461-.6 1.521-1.961.06-1.72-1.581-3.639-4.5-3.6-1.2.021-1.961.121-2.5.341a.479.479 0 0 0-.14-.14c-1.8-1.94-5.14-3.3-5-5.88.04-.94.38-3.419 6.4-6.419 4.94-2.461 8.881-1.78 9.561-.28.977 2.139-2.101 6.12-7.241 6.699-1.96.22-2.98-.539-3.241-.82-.279-.3-.319-.32-.419-.259-.16.08-.06.34 0 .5.16.4.78 1.1 1.861 1.46.939.3 3.24.479 6-.6 3.099-1.199 5.519-4.54 4.819-7.34z" style="fill:var(--color10, #c69)"/></symbol>
<symbol id="icon-close-x" viewBox="0 0 32 32"><path d="M18.148 16 30.78 3.368a1.521 1.521 0 0 0-.08-2.069 1.525 1.525 0 0 0-2.068-.08L16 13.851 3.368 1.203a1.53 1.53 0 0 0-2.164 2.164l12.648 12.632L1.204 28.631a1.513 1.513 0 0 0-.428 1.714c.077.196.193.373.341.522s.326.265.522.341a1.522 1.522 0 0 0 1.714-.428l12.648-12.632L28.633 30.78a1.52 1.52 0 0 0 2.068-.08 1.523 1.523 0 0 0 .08-2.069L18.149 15.999z"/></symbol>
<symbol id="icon-mail" viewBox="0 0 32 32"><path d="M26.666 0H5.334C2.4 0 0 2.4 0 5.333v21.333C0 29.6 2.4 32 5.334 32h21.332C29.602 32 32 29.6 32 26.666V5.333C32 2.399 29.602 0 26.666 0zM8 8h16c.286 0 .563.061.817.177L16 18.463 7.183 8.176c.254-.116.531-.177.817-.177zM6 22V10c0-.042.002-.084.004-.125l5.864 6.842-5.8 5.8A1.983 1.983 0 0 1 5.999 22zm18 2H8c-.177 0-.35-.024-.517-.069l5.691-5.691L16 21.537l2.826-3.297 5.691 5.691c-.167.045-.34.069-.517.069zm2-2c0 .177-.024.35-.069.517l-5.8-5.8 5.864-6.842c.003.041.004.083.004.125v12z"/></symbol>
<symbol id="icon-mail4" viewBox="0 0 32 32"><path d="M16 0C7.163 0 0 7.163 0 16s7.163 16 16 16 16-7.163 16-16S24.837 0 16 0zM8 8h16c.286 0 .563.061.817.177L16 18.463 7.183 8.176c.254-.116.531-.177.817-.177zM6 22V10c0-.042.002-.084.004-.125l5.864 6.842-5.8 5.8A1.983 1.983 0 0 1 5.999 22zm18 2H8c-.177 0-.35-.024-.517-.069l5.691-5.691L16 21.537l2.826-3.297 5.691 5.691c-.167.045-.34.069-.517.069zm2-2c0 .177-.024.35-.069.517l-5.8-5.8 5.865-6.842c.003.041.004.083.004.125v12z"/></symbol>
<symbol id="icon-github" viewBox="0 0 32 32"><path d="M16 .395c-8.836 0-16 7.163-16 16 0 7.069 4.585 13.067 10.942 15.182.8.148 1.094-.347 1.094-.77 0-.381-.015-1.642-.022-2.979-4.452.968-5.391-1.888-5.391-1.888-.728-1.849-1.776-2.341-1.776-2.341-1.452-.993.11-.973.11-.973 1.606.113 2.452 1.649 2.452 1.649 1.427 2.446 3.743 1.739 4.656 1.33.143-1.034.558-1.74 1.016-2.14-3.554-.404-7.29-1.777-7.29-7.907 0-1.747.625-3.174 1.649-4.295-.166-.403-.714-2.03.155-4.234 0 0 1.344-.43 4.401 1.64a15.353 15.353 0 0 1 4.005-.539c1.359.006 2.729.184 4.008.539 3.054-2.07 4.395-1.64 4.395-1.64.871 2.204.323 3.831.157 4.234 1.026 1.12 1.647 2.548 1.647 4.295 0 6.145-3.743 7.498-7.306 7.895.574.497 1.085 1.47 1.085 2.963 0 2.141-.019 3.864-.019 4.391 0 .426.288.925 1.099.768C27.421 29.457 32 23.462 32 16.395c0-8.837-7.164-16-16-16z"/></symbol>
<symbol id="icon-html-five" viewBox="0 0 32 32"><path d="m1.892 0 2.567 28.801L15.983 32l11.554-3.204L30.109 0H1.893zM24.52 9.42H11.003l.322 3.617h12.874l-.97 10.844-7.245 2.008-7.237-2.008-.495-5.547h3.547l.252 2.82 3.933 1.06.009-.002 3.935-1.062.408-4.58H8.094L7.141 5.889h17.694l-.316 3.532z"/></symbol>
<symbol id="icon-html-five2" viewBox="0 0 32 32"><path d="m1.892 0 2.567 28.801L15.983 32l11.554-3.204L30.109 0H1.893zm23.444 26.963-9.288 2.574v.015l-.024-.007-.024.007v-.015l-9.288-2.574L4.517 2.354h23.015l-2.195 24.609zm-5-10.394-.408 4.58-3.944 1.065-3.933-1.06-.252-2.82H8.252l.495 5.547 7.252 2.006 7.229-2.006.97-10.844H11.324l-.322-3.617h13.517l.316-3.532H7.141l.953 10.681z"/></symbol>
<symbol id="icon-css31" viewBox="0 0 32 32"><path d="M4.762 1.516 3.688 6.889h21.867l-.684 3.47H2.99l-1.059 5.372h21.865l-1.219 6.127-8.813 2.919-7.638-2.919.523-2.658H1.277l-1.278 6.448 12.632 4.834 14.563-4.834 4.805-24.133z"/></symbol>
<symbol id="icon-git" viewBox="0 0 32 32"><path d="M31.397 14.575 17.425.604a2.061 2.061 0 0 0-2.915 0L11.264 3.85l2.443 2.443a3 3 0 0 1 4 4l3.999 3.999a3 3 0 1 1-1.414 1.414l-3.999-3.999a2.776 2.776 0 0 1-.293.121v8.343a3 3 0 1 1-2 0v-8.343a3 3 0 0 1-1.707-4.122L9.85 5.263.603 14.509a2.061 2.061 0 0 0 0 2.915l13.973 13.971a2.061 2.061 0 0 0 2.915 0l13.906-13.906a2.061 2.061 0 0 0 0-2.915z"/></symbol></defs></svg>